Coordinates
version=1
nRows=12
nColumns=28
inDegrees=yes

Units are S.I. units (second, meters, Newtons, ...)
Angles are in degrees.

endheader
time	pelvis_tilt	pelvis_list	pelvis_rotation	pelvis_tx	pelvis_ty	pelvis_tz	hip_flexion_r	hip_adduction_r	hip_rotation_r	knee_angle_r	ankle_angle_r	subtalar_angle_r	mtp_angle_r	hip_flexion_l	hip_adduction_l	hip_rotation_l	knee_angle_l	socket_flexion	socket_adduction	socket_rotation	socket_tx	socket_ty	socket_tz	foot_flex	lumbar_extension	lumbar_bending	lumbar_rotation
      0.00000000	     -0.53257230	     -5.49649289	     -8.78274741	     -0.87609892	      0.99212195	      0.26986001	    -24.60353208	      7.13418868	      2.27492146	     -3.32066037	     11.56171849	     -4.68176720	      9.63977869	     24.75866942	    -10.62861892	      8.97728821	      5.10676149	      6.21616691	      0.00000000	      0.00000000	      0.00000000	      0.00121527	      0.00000000	     -0.44306720	    -11.11071997	      4.25962140	     10.20165119
      0.00416667	     -0.59386909	     -5.53422709	     -8.71491594	     -0.87050130	      0.99144175	      0.26946876	    -24.73462460	      7.14160035	      2.32984696	     -3.53185761	     11.51698617	     -4.67949571	      9.63597954	     24.60738036	    -10.54888479	      8.98584943	      5.08612323	      6.18394934	      0.00000000	      0.00000000	      0.00000000	      0.00091284	      0.00000000	     -0.51770310	    -10.96255242	      4.30120398	     10.21556591
      0.00833333	     -0.62033961	     -5.62575856	     -8.76869065	     -0.86492452	      0.99090224	      0.26918377	    -24.73188519	      7.14314998	      2.27105915	     -4.08203367	     11.29556804	     -4.73614145	      9.60455475	     24.33877492	    -10.58501051	      9.00591427	      5.18077370	      6.14261911	      0.00000000	      0.00000000	      0.00000000	      0.00046603	      0.00000000	     -1.02784807	    -10.92767695	      4.38759174	     10.25685874
      0.01250000	     -0.68555542	     -5.67241742	     -8.69746905	     -0.85884295	      0.99018144	      0.26875849	    -24.84895358	      7.15722895	      2.32460847	     -4.35562780	     11.23435635	     -4.73485562	      9.60190925	     24.15616465	    -10.50764663	      9.01652801	      5.17615613	      6.12535484	      0.00000000	      0.00000000	      0.00000000	      0.00002660	      0.00000000	     -1.10040707	    -10.76673277	      4.45203435	     10.27265538
      0.01666667	     -0.74245375	     -5.87981099	     -8.99028131	     -0.85298639	      0.98970709	      0.26871132	    -24.63198036	      7.16672391	      2.26086375	     -5.34385844	     11.11466800	     -4.46671088	      9.86233990	     23.61083885	    -10.79662757	      8.88944841	      5.92713159	      6.53242785	      0.00000000	      0.00000000	      0.00000000	     -0.00039524	      0.00000000	     -1.51536647	    -10.75135208	      4.65275065	     10.67697454
      0.02083333	     -0.79502711	     -5.93038140	     -8.97743457	     -0.84675233	      0.98909052	      0.26834785	    -24.64894886	      7.15167026	      2.21397352	     -5.83953835	     10.90812936	     -4.49440938	      9.86416130	     23.36349171	    -10.75440784	      8.93422062	      5.98466675	      6.52304879	      0.00000000	      0.00000000	      0.00000000	     -0.00087294	      0.00000000	     -1.82927830	    -10.63988174	      4.70742428	     10.66757686
      0.02500000	     -0.86403677	     -6.00361344	     -8.97366712	     -0.84040181	      0.98845459	      0.26795249	    -24.62132608	      7.15460068	      2.16723479	     -6.40668250	     10.68927968	     -4.51711921	      9.88203246	     23.10141867	    -10.74269989	      9.00025720	      6.10247868	      6.56779362	      0.00000000	      0.00000000	      0.00000000	     -0.00142122	      0.00000000	     -2.11625846	    -10.50786438	      4.79811286	     10.66747515
      0.02916667	     -0.94167850	     -6.06569905	     -8.96740230	     -0.83395925	      0.98784172	      0.26757947	    -24.58770239	      7.15377982	      2.17389468	     -6.96326034	     10.47835519	     -4.53285745	      9.89408182	     22.84636677	    -10.72502721	      9.10738355	      6.20524450	      6.59615641	      0.00000000	      0.00000000	      0.00000000	     -0.00200599	      0.00000000	     -2.40330646	    -10.36901952	      4.86377163	     10.66623563
      0.03333333	     -1.08736401	     -6.17223682	     -9.02282425	     -0.82743823	      0.98718450	      0.26719881	    -24.38631421	      7.17135854	      2.09556052	     -7.72245984	     10.22872092	     -4.49459166	     10.07186676	     22.56126852	    -10.79068799	      9.16512536	      6.54923806	      6.83415477	      0.00000000	      0.00000000	      0.00000000	     -0.00260840	      0.00000000	     -2.62933394	    -10.15826303	      5.01930357	     10.73125528
      0.03750000	     -1.15977460	     -6.20465306	     -9.00845684	     -0.82083039	      0.98664876	      0.26682606	    -24.35510924	      7.14325303	      2.13433852	     -8.26842593	      9.99304654	     -4.51292400	     10.08646682	     22.30256820	    -10.74179067	      9.29540868	      6.59862224	      6.82575764	      0.00000000	      0.00000000	      0.00000000	     -0.00328094	      0.00000000	     -2.95012778	     -9.99933974	      5.03459393	     10.72249753
      0.04166667	     -1.23867495	     -6.24178686	     -9.00424701	     -0.81424622	      0.98617503	      0.26644984	    -24.23847105	      7.11598695	      2.11368368	     -8.95697951	      9.67202105	     -4.57546760	     10.09655360	     22.03276797	    -10.70359304	      9.40041119	      6.68533752	      6.87673297	      0.00000000	      0.00000000	      0.00000000	     -0.00396607	      0.00000000	     -3.24028857	     -9.85509766	      5.08202179	     10.70994888
      0.04583333	     -1.37233693	     -6.29208275	     -9.03055044	     -0.80749924	      0.98564643	      0.26606390	    -24.01652453	      7.08794415	      2.00860032	     -9.74355479	      9.29835532	     -4.67678577	     10.20723168	     21.76427114	    -10.69963288	      9.45084205	      6.88821477	      7.02031946	      0.00000000	      0.00000000	      0.00000000	     -0.00470220	      0.00000000	     -3.44509006	     -9.61452961	      5.17174981	     10.71743339
